<?xml version="1.0" encoding="utf-8"?>
<!-- Generator: Adobe Illustrator 22.0.1, SVG Export Plug-In . SVG Version: 6.00 Build 0)  -->
<svg version="1.1" id="Layer_1" xmlns="http://www.w3.org/2000/svg" xmlns:xlink="http://www.w3.org/1999/xlink" x="0px" y="0px"
	 viewBox="0 0 400 400" style="enable-background:new 0 0 400 400;" xml:space="preserve">
<g>
	<g>
		<path d="M21,60.7c10.4-3.5,20.9-6.5,31.5-9.2c10.6-2.7,21.3-5.1,32.1-7.3c21.5-4.3,43.4-7.4,65.5-8.7c5.5-0.3,11.1-0.6,16.7-0.6
			c5.6,0,11.2,0,16.8,0.3c5.6,0.2,11.3,0.7,16.9,1.4c5.7,0.7,11.3,1.7,17,3c5.7,1.3,11.3,3.1,16.9,5.4c5.6,2.3,11.1,5.2,16.3,9.1
			c1.3,1,2.5,2,3.8,3.1l1.8,1.7c0.6,0.6,1.2,1.1,1.7,1.8l1.7,1.8c0.6,0.6,1,1.3,1.6,2c0.5,0.7,1.1,1.3,1.5,2l1.3,2
			c3.5,5.5,6.2,11.8,7.4,18.5c1.2,6.7,1,13.6-0.4,19.9c-1.4,6.4-3.7,12.3-6.5,17.7c-2.9,5.4-6.2,10.4-9.7,15
			c-3.6,4.7-7.4,9-11.4,13.1c-4,4.1-8.1,8-12.4,11.7c-4.2,3.7-8.6,7.3-13,10.7c-8.8,6.8-18,13.1-27.3,19.1
			c-18.7,11.9-38.1,22.3-57.9,31.8c-9.9,4.7-19.9,9.2-30,13.4c-10.1,4.2-20.3,8.1-30.7,11.6l-0.4-0.9c19.1-10.6,37.9-21.5,56.4-32.8
			c18.5-11.3,36.7-23.1,54-35.7c4.3-3.1,8.6-6.4,12.8-9.7c4.2-3.3,8.4-6.6,12.4-10c8.1-6.9,15.8-14,22.8-21.7
			c6.9-7.7,13.2-15.7,17.5-24.3c2.1-4.3,3.8-8.6,4.7-12.9c0.9-4.3,1-8.5,0.2-12.5c-0.8-4-2.3-7.9-4.7-11.7l-0.9-1.4
			c-0.3-0.5-0.6-0.8-0.9-1.3c-0.3-0.4-0.6-0.8-1-1.2l-1.1-1.2c-0.3-0.4-0.7-0.8-1.1-1.2l-1.2-1.1c-0.8-0.7-1.7-1.4-2.6-2.1
			c-7.1-5.5-16.4-9.2-26.2-11.8c-9.8-2.7-20.2-4.1-30.6-5.2c-5.2-0.5-10.5-0.8-15.8-1c-5.3-0.2-10.6-0.3-16-0.3
			c-21.4-0.1-43,1.3-64.6,3.3c-21.6,2-43.2,4.6-64.8,7.6L21,60.7z"/>
	</g>
	<g>
		<path d="M70.1,53.2l2.8,137.7l-1,0l0,0c-0.7-2.6-0.9-5.3-0.9-7.9c0-2.6,0.3-5.2,0.8-7.7c1-5.1,2.8-10,5.3-14.6
			c2.5-4.6,5.5-9,9.1-12.8c3.6-3.8,7.8-7.1,12.2-10c2.2-1.5,4.5-2.7,6.8-3.9c2.4-1.1,4.7-2.3,7.1-3.1c2.4-1,4.9-1.7,7.3-2.4
			c1.2-0.3,2.5-0.6,3.7-0.9l1.9-0.4c0.6-0.1,1.3-0.2,1.9-0.3c10-1.6,20.1-1.4,29.7,0.6l0,1l-7.1,1.3c-2.3,0.5-4.7,0.9-6.9,1.5
			c-2.3,0.6-4.5,1.2-6.8,1.9c-1.1,0.4-2.2,0.7-3.3,1.1c-1.1,0.4-2.1,0.8-3.2,1.2c-0.5,0.2-1.1,0.4-1.6,0.6l-1.6,0.7
			c-1,0.5-2.1,0.9-3.1,1.4c-2,1.1-4,2-5.9,3.2c-2,1.1-3.7,2.4-5.6,3.6c-1.7,1.3-3.5,2.6-5.1,4.1c-3.3,2.9-6.2,6-9.1,9.3
			c-2.8,3.3-5.6,6.6-8.2,10.1c-2.6,3.5-5.1,7.2-7.8,11c-2.7,3.8-5.4,7.7-8.7,11.8l0,0l-0.5,3.9l-0.5-3.9L54.3,54.4L70.1,53.2z"/>
	</g>
</g>
<g>
	<g>
		<path d="M379.1,325.9c-10,4.5-20.2,8.5-30.5,12.3c-10.3,3.8-20.7,7.2-31.2,10.4c-21,6.3-42.5,11.6-64.4,15.1
			c-5.5,0.9-11,1.6-16.5,2.3c-5.6,0.6-11.1,1.1-16.8,1.3c-5.6,0.3-11.3,0.4-17,0.2c-5.7-0.2-11.4-0.6-17.2-1.3
			c-5.8-0.8-11.6-2-17.4-3.7c-5.8-1.8-11.6-4.1-17.1-7.4c-1.4-0.8-2.7-1.8-4-2.7l-1.9-1.5c-0.7-0.5-1.3-1-1.9-1.6l-1.8-1.7
			c-0.6-0.6-1.2-1.2-1.8-1.8c-0.6-0.6-1.2-1.2-1.7-1.9l-1.5-1.9c-4-5.1-7.3-11.1-9.2-17.7c-1.9-6.5-2.3-13.4-1.6-19.9
			c0.7-6.5,2.4-12.6,4.8-18.2c2.3-5.7,5.1-10.9,8.2-15.9c3.1-5,6.4-9.7,10-14.2c3.6-4.5,7.3-8.8,11.2-12.9
			c3.9-4.1,7.9-8.1,11.9-11.9c8.1-7.7,16.6-14.8,25.4-21.7c17.4-13.6,35.7-25.9,54.5-37.3c9.4-5.7,18.9-11.1,28.6-16.3
			c9.7-5.2,19.4-10.1,29.4-14.6l0.5,0.9c-18,12.4-35.7,25.1-53,38.2c-17.3,13.1-34.2,26.5-50.3,40.8c-4,3.6-8,7.2-11.8,10.9
			c-3.9,3.7-7.7,7.4-11.4,11.2c-7.4,7.6-14.4,15.5-20.6,23.8c-6.1,8.3-11.6,17-15.1,25.9c-1.7,4.5-3,8.9-3.4,13.3
			c-0.4,4.4-0.1,8.6,1,12.5c1.1,3.9,3.1,7.7,5.8,11.1l1,1.3c0.3,0.4,0.7,0.8,1.1,1.2c0.4,0.4,0.7,0.8,1.1,1.1l1.2,1.1
			c0.4,0.4,0.8,0.7,1.2,1l1.3,1c0.9,0.6,1.8,1.3,2.7,1.8c7.6,4.8,17.2,7.6,27.2,9.2c10,1.7,20.5,2.2,31,2.2c5.3,0,10.6-0.2,15.9-0.5
			c5.3-0.3,10.6-0.7,16-1.2c21.3-2,42.6-5.5,63.9-9.5c21.3-4.1,42.5-8.8,63.8-13.9L379.1,325.9z"/>
	</g>
	<g>
		<path d="M330.9,338.1l-16.2-136.8l1,0l0,0c1,2.6,1.4,5.2,1.7,7.8c0.2,2.6,0.2,5.2,0,7.8c-0.5,5.2-1.8,10.2-3.8,15.1
			c-2,4.8-4.6,9.5-7.8,13.6c-3.2,4.2-7.1,7.9-11.2,11.1c-2,1.7-4.2,3.1-6.4,4.6c-2.3,1.3-4.5,2.7-6.8,3.8c-2.3,1.2-4.7,2.2-7.1,3.1
			c-1.2,0.4-2.4,0.8-3.6,1.2l-1.8,0.6c-0.6,0.2-1.2,0.3-1.8,0.5c-9.8,2.5-19.8,3.3-29.6,2.3l-0.1-1l7-2c2.3-0.7,4.6-1.4,6.8-2.2
			c2.2-0.8,4.4-1.6,6.5-2.5c1.1-0.5,2.1-0.9,3.2-1.4c1-0.5,2.1-1,3.1-1.5c0.5-0.3,1-0.5,1.5-0.8l1.5-0.8c1-0.6,2-1.1,2.9-1.7
			c1.9-1.3,3.8-2.4,5.6-3.7c1.8-1.3,3.5-2.7,5.2-4.1c1.6-1.5,3.2-3,4.7-4.6c3-3.2,5.6-6.6,8.1-10.1c2.5-3.5,4.9-7.1,7.2-10.9
			c2.3-3.8,4.4-7.7,6.7-11.7c2.3-4,4.6-8.1,7.5-12.6l0,0l0.1-3.9l0.9,3.8l30.9,134.2L330.9,338.1z"/>
	</g>
</g>
</svg>
